<svg xmlns="http://www.w3.org/2000/svg" viewBox="0 0 1200 760" role="img" aria-labelledby="title desc">
  <title id="title">$75 Sheetz fuel and convenience gift card</title>
  <desc id="desc">A red and black digital reward card with a fuel pump illustration.</desc>
  <defs>
    <linearGradient id="bg" x1="0" y1="0" x2="1" y2="1"><stop stop-color="#f02a32"/><stop offset=".44" stop-color="#b70e1b"/><stop offset="1" stop-color="#16050b"/></linearGradient>
    <radialGradient id="glow" cx="78%" cy="8%" r="68%"><stop stop-color="#ff756d" stop-opacity=".7"/><stop offset="1" stop-color="#ff756d" stop-opacity="0"/></radialGradient>
    <filter id="shadow"><feDropShadow dx="0" dy="18" stdDeviation="18" flood-opacity=".4"/></filter>
  </defs>
  <rect width="1200" height="760" rx="72" fill="url(#bg)"/>
  <rect width="1200" height="760" rx="72" fill="url(#glow)"/>
  <g opacity=".13" fill="#fff"><circle cx="920" cy="520" r="235"/><circle cx="1110" cy="140" r="125"/></g>
  <g transform="translate(84 88)" filter="url(#shadow)">
    <rect width="250" height="250" rx="54" fill="#05070c" fill-opacity=".32" stroke="#fff" stroke-opacity=".54" stroke-width="4"/>
    <path d="M69 69h90v126H69zM87 88h54v43H87zM159 90h21l26 31v57c0 24 35 24 35 0v-31" fill="none" stroke="#fff" stroke-linecap="round" stroke-linejoin="round" stroke-width="18"/>
  </g>
  <text x="392" y="176" fill="#fff" font-family="Arial,Helvetica,sans-serif" font-size="88" font-style="italic" font-weight="900" letter-spacing="-5">SHEETZ</text>
  <text x="392" y="235" fill="#fff" fill-opacity=".78" font-family="Arial,Helvetica,sans-serif" font-size="29" font-weight="800" letter-spacing="6">FUEL + CONVENIENCE</text>
  <text x="84" y="580" fill="#fff" font-family="Arial,Helvetica,sans-serif" font-size="142" font-weight="900" letter-spacing="-8">$75</text>
  <text x="92" y="646" fill="#fff" fill-opacity=".76" font-family="Arial,Helvetica,sans-serif" font-size="31" font-weight="700">DIGITAL GIFT CARD</text>
  <path d="m895 529 63-69 64 69 63-69" fill="none" stroke="#fff" stroke-linecap="round" stroke-linejoin="round" stroke-width="20" opacity=".78"/>
</svg>
